
        <svg xmlns="http://www.w3.org/2000/svg" xmlns:xlink="http://www.w3.org/1999/xlink" version="1.1" width="3193.548387096774" height="3156.5115750803643" viewBox="0 0 3193.548387096774 3156.5115750803643">
			
			<g transform="scale(9.67741935483871) translate(10, 10)">
				<defs id="SvgjsDefs1345"/><g id="SvgjsG1346" featureKey="rootContainer" transform="matrix(2.9388568246550153,0,0,2.9388568246550153,-0.11025446391769686,0.08425770368723878)" fill="#000"><path xmlns="http://www.w3.org/2000/svg" d="M104.6 41.3a52.2 52.2 0 0 0-3.5-11.2A51.1 51.1 0 0 0 44.3 1a49.6 49.6 0 0 0-5.7 1.5 49.1 49.1 0 0 0-7.9 2.7A51.6 51.6 0 0 0 6.3 77a53.7 53.7 0 0 0 4.1 6.4 57 57 0 0 0 5 5.7 51.7 51.7 0 0 0 55.3 11.5l3.3-1.4 3-1.5a50.9 50.9 0 0 0 5.8-3.8l2.7-2.1 1.2-1.1 1.1-.9 2-1.8.7-.6.6-.7 1.8-2a48.5 48.5 0 0 0 5.9-8.3 50.4 50.4 0 0 0 5.6-14.7 51.6 51.6 0 0 0 .2-20.4zM87.1 88.6l-1.2 1.1-1.2 1.1-2.6 2.1a49.5 49.5 0 0 1-5.7 3.6l-3 1.5-3.2 1.3-4.9 1.6h-.5a50.9 50.9 0 0 1-20.3.1 51.8 51.8 0 0 1-11.1-3.6A50.5 50.5 0 0 1 22.9 91a52 52 0 0 1-9.1-9.4 50.3 50.3 0 0 1-3.7-5.7c-.6-1-1.1-2-1.6-3.1s-1-2.1-1.3-3.2a50.6 50.6 0 0 1 8.6-50.8l.8-.8.5-.6.6-.6 1.2-1.1 2.4-2.1A50.5 50.5 0 0 1 62.4 3.2a48.5 48.5 0 0 1 14.7 5.2 47 47 0 0 1 8.3 5.8l2 1.8.7.6.6.7 1.8 2a49.7 49.7 0 0 1 11.3 22.9 50.8 50.8 0 0 1-.1 20.2 51.6 51.6 0 0 1-3.6 11 50.2 50.2 0 0 1-6.6 10.5l-2.1 2.4zm-44.9 13a50.1 50.1 0 0 1-13.7-5 51.8 51.8 0 0 1-6.2-4 55.2 55.2 0 0 1-5.5-4.8 49.9 49.9 0 0 1-11-53.2c.4-1.1.9-2.1 1.3-3.1l.6-1.3a50.2 50.2 0 0 0-3.4 11 51.3 51.3 0 0 0 2.4 28.5c.4 1.1.9 2.2 1.4 3.2s1 2.1 1.6 3.1a50.6 50.6 0 0 0 3.7 5.8 51.5 51.5 0 0 0 9.2 9.5 50.9 50.9 0 0 0 10.7 6.5 51 51 0 0 0 28.7 3.9 50.3 50.3 0 0 1-19.8-.1zm61.9-39.9a50.2 50.2 0 0 1-5.5 14.7 48.4 48.4 0 0 1-5.8 8.3l-1.8 2-.6.7-.7.6-1.9 1.7h.2l2.3-2.4 2.1-2.5A51.3 51.3 0 0 0 98.9 74a51.4 51.4 0 0 0 3.2-31.6 49.6 49.6 0 0 0-2.5-8.2 49.4 49.4 0 0 0-3.1-6.5 48.7 48.7 0 0 0-5.9-8.3l-1.8-2-.6-.7-.7-.6-2-1.8A49.9 49.9 0 0 0 77.3 8a49.3 49.3 0 0 0-6.5-3.2 49.8 49.8 0 0 0-8.2-2.6A52.2 52.2 0 0 0 49.9 1a50.8 50.8 0 0 1 22.7 3.2l3.2 1.3 3.1 1.6a50.1 50.1 0 0 1 5.7 3.7l2.6 2.1 1.2 1.1 1.2 1.1 2.3 2.3 2.1 2.4a50.4 50.4 0 0 1 6.5 10.5 51.6 51.6 0 0 1 3.6 11 51.1 51.1 0 0 1 0 20.3z"/></g><g id="SvgjsG1347" featureKey="symbolFeature-0" transform="matrix(0.8580310880829013,0,0,0.8580310880829013,112.05616578265176,69.36974095309954)" fill="#000"><rect xmlns="http://www.w3.org/2000/svg" x="47.4" y="1.9" width="5.1" height="5.1"/><rect xmlns="http://www.w3.org/2000/svg" x="47.4" y="93.3" width="5.1" height="5.1"/><rect xmlns="http://www.w3.org/2000/svg" x="13.9" y="78.7" width="5.1" height="5.1"/><rect xmlns="http://www.w3.org/2000/svg" x="79.5" y="78.7" width="5.1" height="5.1"/><rect xmlns="http://www.w3.org/2000/svg" x="13.9" y="15.9" width="5.1" height="5.1"/><rect xmlns="http://www.w3.org/2000/svg" x="79.5" y="15.9" width="5.1" height="5.1"/><rect xmlns="http://www.w3.org/2000/svg" x="1.1" y="47.2" width="5.1" height="5.1"/><rect xmlns="http://www.w3.org/2000/svg" x="93.8" y="47.2" width="5.1" height="5.1"/><path xmlns="http://www.w3.org/2000/svg" d="M10.4,24.5c-3.8,5.8-6.2,12.2-7.1,19.1l-0.1,0.6h3l0.1-0.5c1-6.7,3.5-13.1,7.3-18.7l0.6-0.8h-3.5L10.4,24.5  z"/><path xmlns="http://www.w3.org/2000/svg" d="M6.1,55.8L6,55.3H3.1l0.1,0.6c0.9,7.1,3.2,13.6,7,19.6l0.2,0.2h3.5l-0.6-0.8C9.5,69.2,7,62.6,6.1,55.8z"/><path xmlns="http://www.w3.org/2000/svg" d="M93.7,43.8l0.1,0.5h3l-0.1-0.6c-1-6.9-3.4-13.3-7.1-19.1l-0.2-0.2h-3.5l0.6,0.8  C90.2,30.7,92.7,37.1,93.7,43.8z"/><path xmlns="http://www.w3.org/2000/svg" d="M93.9,55.3l-0.1,0.5c-0.9,6.8-3.4,13.5-7.2,19.1L86,75.7h3.5l0.2-0.2c3.8-5.9,6.2-12.5,7-19.6l0.1-0.6  L93.9,55.3L93.9,55.3z"/><path xmlns="http://www.w3.org/2000/svg" d="M74.1,13.2l0.1,0.1h5l-1.3-1C71.6,7.5,64,4.4,56.1,3.4l-0.6-0.1v3L56,6.4C62.5,7.3,68.6,9.5,74.1,13.2z"/><path xmlns="http://www.w3.org/2000/svg" d="M21.9,12.3l-1.3,1h5l0.1-0.1C31.3,9.5,37.4,7.3,44,6.4l0.5-0.1v-3l-0.6,0.1C35.9,4.4,28.3,7.5,21.9,12.3z"/><path xmlns="http://www.w3.org/2000/svg" d="M74.6,86.9c-5.6,3.7-12,6.2-18.7,7.1l-0.5,0.1v3L56,97c8.1-1.1,15.8-4.2,22.3-9.2l1.3-1L74.6,86.9  L74.6,86.9z"/><path xmlns="http://www.w3.org/2000/svg" d="M25.3,86.9l-0.2-0.1h-4.9l1.3,1c6.5,5,14.3,8.1,22.4,9.2l0.6,0.1v-3L44,94C37.3,93.1,30.8,90.6,25.3,86.9z"/><polygon xmlns="http://www.w3.org/2000/svg" points="36.7,59.6 24.3,49.6 36.8,40.6 39.7,44.7 32.6,49.8 39.8,55.7 "/><polygon xmlns="http://www.w3.org/2000/svg" points="63.2,59.6 60.1,55.7 67.3,49.8 60.2,44.7 63.1,40.6 75.6,49.6 "/><rect xmlns="http://www.w3.org/2000/svg" x="47.7" y="34" transform="matrix(0.9452 0.3264 -0.3264 0.9452 19.1192 -13.6479)" width="5" height="32.4"/></g><g id="SvgjsG1348" featureKey="nameFeature-0" transform="matrix(1.0011012174494311,0,0,1.0011012174494311,52.39713693010393,163.18810761532575)" fill="#000"><path d="M21.2 12 l5.48 0 l0 28 l-4.52 0 l-14.08 -18.2 l0 18.2 l-5.48 0 l0 -28 l4.52 0 l14.08 18.16 l0 -18.16 z M38.69 40.56 c-6.24 0 -10.84 -4.64 -10.84 -10.68 c0 -6.08 4.6 -10.68 10.84 -10.68 s10.8 4.6 10.8 10.68 c0 6.04 -4.56 10.68 -10.8 10.68 z M38.69 35.76 c3.36 0 5.68 -2.52 5.68 -5.88 s-2.32 -5.88 -5.68 -5.88 c-3.4 0 -5.68 2.52 -5.68 5.88 s2.28 5.88 5.68 5.88 z M60.46000000000001 40.56 c-6.48 0 -11 -4.28 -11 -10.68 c0 -6.04 4.24 -10.68 10.6 -10.68 c6.64 0 10.44 4.6 10.44 10.4 c0 0.64 0 1.24 -0.12 1.88 l-15.72 0 c0.36 2.6 2.2 4.6 5.88 4.6 c2.56 0 4.12 -1.16 4.92 -2.68 l4.76 1.4 c-1.16 2.64 -4.44 5.76 -9.76 5.76 z M54.66000000000001 28.16 l10.68 0 c-0.24 -2.48 -2.16 -4.48 -5.32 -4.48 c-3.08 0 -5.08 2.16 -5.36 4.48 z M71.71000000000001 40 l0 -29.2 l5.28 0 l0 29.2 l-5.28 0 z M105.57000000000001 25.32 c2.76 1.24 4.52 3.6 4.52 6.76 c0 4.8 -3.56 7.92 -9.52 7.92 l-14.12 0 l0 -28 l13.36 0 c5.48 0 9.2 3.04 9.24 7.48 c0 2.68 -1.32 4.68 -3.48 5.84 z M99.77000000000001 16.72 l-7.96 0 l0 6.92 l8.08 0 c2.28 0 3.8 -1.6 3.76 -3.52 c0 -1.96 -1.56 -3.44 -3.88 -3.4 z M100.53 35.24 c2.6 0 4.12 -1.64 4.12 -3.68 c0 -2 -1.48 -3.6 -4.08 -3.6 l-8.76 0 l0 7.28 l8.72 0 z M116.62 22.76 c1.2 -2.36 3.52 -3.72 6.68 -3.28 l0 4.96 c-4.32 -0.68 -6.68 1.32 -6.68 6.76 l0 8.8 l-5.28 0 l0 -20.24 l5.28 0 l0 3 z M138.95000000000002 19.76 l5.64 0 l-12.16 28.64 l-5.44 0 l3.68 -8.84 l-9.16 -19.8 l5.8 0 l6 13.68 z M153.32 40.56 c-5.6 0 -10 -4.56 -10 -10.68 c0 -6.16 4.4 -10.68 10 -10.68 c2.84 0 5.08 1.16 6.52 3 l0 -2.44 l5.32 0 l0 20.24 l-5.32 0 l0 -2.48 c-1.44 1.84 -3.68 3.04 -6.52 3.04 z M154.24 35.84 c3.2 0 5.76 -2.48 5.76 -6 c0 -3.48 -2.56 -5.92 -5.76 -5.92 c-3.32 0 -5.68 2.44 -5.68 5.92 c0 3.52 2.36 6 5.68 6 z M179.37 19.2 c5.28 0 7.96 3.56 7.96 8.96 l0 11.84 l-5.28 0 l0 -10.84 c0 -3.08 -1.4 -5.04 -4.32 -5.04 c-2.96 0 -4.88 2.32 -4.88 5.88 l0 10 l-5.28 0 l0 -20.24 l5.28 0 l0 2.56 c1.4 -1.8 3.6 -3.12 6.52 -3.12 z M201.1 35.08 l1.28 4.28 c-1.6 0.64 -3.04 0.96 -4.72 0.96 c-4.64 0 -6.76 -2.88 -6.76 -7.24 l0 -8.68 l-3.4 0 l0 -4.64 l3.4 0 l0 -6.56 l5.32 0 l0 6.56 l5.92 0 l0 4.64 l-5.92 0 l0 8.68 c0 1.64 0.8 2.56 2.48 2.56 c0.92 0 1.6 -0.16 2.4 -0.56 z"/></g><g id="SvgjsG1349" featureKey="sloganFeature-0" transform="matrix(0.915389423508477,0,0,0.915389423508477,86.54698810751427,217.06844659590914)" fill="#000"><path d="M0.7 20.04 c-0.2 0.02 -0.28 -0.68 -0.12 -0.72 c1.16 -0.3 2.06 -0.48 2.06 -1.96 l0 -8.88 c0 -1.4 -0.82 -1.68 -1.68 -1.8 c-0.16 -0.02 -0.04 -0.68 0.1 -0.68 l5.52 0 c0.14 0 0.24 0.66 0.1 0.68 c-0.84 0.1 -1.64 0.4 -1.64 1.8 l0 8.88 c0 1.14 0.48 1.56 2.14 1.56 c3.02 0 4.22 -1.38 4.7 -2.14 c0.14 -0.22 0.68 -0.12 0.68 0.22 c0 1.02 -0.86 3.04 -2.12 3.04 c-1.12 -0.06 -2.22 -0.12 -3.9 -0.12 c-1.84 0 -4.02 -0.06 -5.84 0.12 z M17.069499999999998 20.04 c-0.2 0.02 -0.28 -0.68 -0.12 -0.72 c1.16 -0.3 2.06 -0.48 2.06 -1.96 l0 -8.88 c0 -1.28 -0.82 -1.62 -1.68 -1.84 c-0.16 -0.04 -0.06 -0.7 0.1 -0.68 c1.46 0.16 3.98 0.12 5.2 0.12 c1.82 0 3.14 -0.08 4.78 -0.12 c0.48 0 0.48 0.32 0.38 0.78 l-0.48 1.9 c-0.06 0.28 -0.56 0.28 -0.64 0 c-0.3 -0.98 -0.9 -1.54 -3.4 -1.54 c-1.4 0 -1.86 0.36 -1.86 1.4 l0 3.26 c0 0.52 0.26 0.62 0.66 0.62 l0.44 0 c1.62 0 3.02 -0.16 3.84 -0.9 c0.2 -0.18 0.64 -0.14 0.46 0.26 l-1.14 2.52 c-0.16 0.36 -0.46 0.32 -0.68 0.02 c-0.46 -0.64 -1.48 -0.9 -2.64 -0.9 l-0.28 0 c-0.4 0 -0.66 0.1 -0.66 0.62 l0 3.36 c0 1.14 0.48 1.56 2.14 1.56 c3.02 0 4.22 -1.38 4.7 -2.14 c0.14 -0.22 0.68 -0.12 0.68 0.22 c0 1.02 -0.86 3.04 -2.12 3.04 c-1.12 -0.06 -2.22 -0.12 -3.9 -0.12 c-1.84 0 -4.02 -0.06 -5.84 0.12 z M36.718999999999994 20 c-0.18 0 -0.3 -0.64 -0.14 -0.66 c1.38 -0.18 2.3 -0.46 2.3 -1.54 l0 -9.86 c0 -0.5 -0.18 -0.66 -0.66 -0.66 l-0.54 0 c-1.9 0 -2.96 0.44 -3.36 1.3 c-0.18 0.4 -0.86 0.34 -0.78 0 c0.18 -0.72 0.34 -1.34 0.46 -2.4 c0.04 -0.38 0.26 -0.36 0.62 -0.32 c0.92 0.1 1.76 0.14 5.56 0.14 s5.14 -0.04 6.1 -0.14 c0.36 -0.04 0.7 -0.06 0.58 0.32 c-0.3 0.94 -0.5 1.68 -0.62 2.4 c-0.06 0.34 -0.6 0.36 -0.68 0 c-0.2 -0.84 -1.08 -1.3 -2.8 -1.3 l-0.62 0 c-0.48 0 -0.78 0.16 -0.78 0.66 l0 9.86 c0 1.08 0.92 1.36 2.3 1.54 c0.16 0.02 0.04 0.66 -0.14 0.66 l-6.8 0 z M54.12849999999999 5.68 c-0.28 1.56 -0.58 3.32 -0.86 4.86 c-0.06 0.34 -1.3 0.54 -1.28 0.22 c0.06 -1.52 0.1 -3.24 0.14 -4.76 c0.02 -0.56 2.1 -0.88 2 -0.32 z M63.557999999999986 20.32 c-1.64 0 -4.14 -0.72 -3.9 -1.6 l0.2 -0.74 c0.56 -2.1 1.22 0.98 4.52 0.98 c1.68 0 2.5 -0.82 2.5 -1.98 c0 -0.94 -0.6 -1.34 -2.02 -2.22 l-1.94 -1.22 c-2.16 -1.36 -3.04 -2.2 -3.04 -3.7 c0 -2.46 2.4 -4.16 4.88 -4.16 c1.52 0 3.46 0.66 3.24 1.34 l-0.24 0.76 c-0.62 1.94 -1.12 -0.74 -3.86 -0.74 c-1.42 0 -2.16 0.72 -2.16 1.78 c0 0.9 0.54 1.4 1.88 2.22 l2.1 1.3 c2.12 1.32 2.98 2.22 2.98 3.66 c0 2.5 -2.46 4.32 -5.14 4.32 z M89.01699999999998 20.32 c-3.36 0 -7.9 -1.96 -7.9 -7.06 c0 -3.46 2.12 -7.58 7.72 -7.58 c2.32 0 4.32 0.72 4.08 1.42 l-0.26 0.78 c-0.72 2.14 -1.5 -0.6 -5.06 -0.6 c-2.86 0 -4.26 1.86 -4.26 4.74 c0 4.5 3.42 6.38 6.16 6.38 c0.36 0 2.18 -0.28 3.22 -0.94 c0.16 -0.1 0.58 0.36 0.46 0.54 c-0.86 1.26 -3.54 2.32 -4.16 2.32 z M105.72649999999999 20.32 c-4.16 0 -7.22 -3.08 -7.22 -7.24 c0 -4.04 2.88 -7.4 7.26 -7.4 c4.18 0 7.22 3.06 7.22 7.22 c0 4.06 -2.86 7.42 -7.26 7.42 z M106.50649999999997 18.96 c1.76 0 4.1 -1.16 4.1 -4.94 c0 -4.04 -2.74 -6.98 -5.62 -6.98 c-1.76 0 -4.08 1.16 -4.08 4.92 c0 4.08 2.74 7 5.6 7 z M117.99599999999998 20.04 c-0.2 0.02 -0.28 -0.68 -0.12 -0.72 c1.16 -0.3 2.06 -0.48 2.06 -1.96 l0 -8.88 c0 -1.28 -0.82 -1.62 -1.68 -1.84 c-0.16 -0.04 -0.06 -0.7 0.1 -0.68 c0.82 0.1 1.66 0.12 2.5 0.12 c1.56 0 2.96 -0.12 3.98 -0.12 c4.84 0 7.46 2.88 7.46 6.74 c0 3.84 -2.62 7.34 -7.48 7.34 c-0.96 0 -2.2 -0.12 -3.68 -0.12 c-1.24 0 -2.22 0.02 -3.14 0.12 z M125.01599999999998 18.98 c3.26 0 4.88 -1.76 4.88 -5.14 c0 -3.82 -2.08 -6.82 -5.68 -6.82 c-1.42 0 -1.88 0.44 -1.88 1.46 l0 8.88 c0 1.08 0.74 1.62 2.68 1.62 z M137.20549999999997 20.04 c-0.2 0.02 -0.28 -0.68 -0.12 -0.72 c1.16 -0.3 2.06 -0.48 2.06 -1.96 l0 -8.88 c0 -1.28 -0.82 -1.62 -1.68 -1.84 c-0.16 -0.04 -0.06 -0.7 0.1 -0.68 c1.46 0.16 3.98 0.12 5.2 0.12 c1.82 0 3.14 -0.08 4.78 -0.12 c0.48 0 0.48 0.32 0.38 0.78 l-0.48 1.9 c-0.06 0.28 -0.56 0.28 -0.64 0 c-0.3 -0.98 -0.9 -1.54 -3.4 -1.54 c-1.4 0 -1.86 0.36 -1.86 1.4 l0 3.26 c0 0.52 0.26 0.62 0.66 0.62 l0.44 0 c1.62 0 3.02 -0.16 3.84 -0.9 c0.2 -0.18 0.64 -0.14 0.46 0.26 l-1.14 2.52 c-0.16 0.36 -0.46 0.32 -0.68 0.02 c-0.46 -0.64 -1.48 -0.9 -2.64 -0.9 l-0.28 0 c-0.4 0 -0.66 0.1 -0.66 0.62 l0 3.36 c0 1.14 0.48 1.56 2.14 1.56 c3.02 0 4.22 -1.38 4.7 -2.14 c0.14 -0.22 0.68 -0.12 0.68 0.22 c0 1.02 -0.86 3.04 -2.12 3.04 c-1.12 -0.06 -2.22 -0.12 -3.9 -0.12 c-1.84 0 -4.02 -0.06 -5.84 0.12 z"/></g>
			</g>
		</svg>
	